<mxfile host="app.diagrams.net" modified="2021-06-08T01:37:59.903Z" agent="5.0 (X11; Linux x86_64) AppleWebKit/537.36 (KHTML, like Gecko) Chrome/90.0.4430.93 Safari/537.36" etag="LVoYozKmITi2H1GqOJL4" version="14.7.5" type="github">
  <diagram id="Fpe55DXq4Zk_MT4FqHaN" name="Page-1">
    <mxGraphModel dx="1035" dy="594" grid="1" gridSize="10" guides="1" tooltips="1" connect="1" arrows="1" fold="1" page="1" pageScale="1" pageWidth="827" pageHeight="1169" math="0" shadow="0">
      <root>
        <mxCell id="0" />
        <mxCell id="1" parent="0" />
        <mxCell id="YRbqOb-YYkBFLriZjriP-4" style="edgeStyle=orthogonalEdgeStyle;rounded=0;orthogonalLoop=1;jettySize=auto;html=1;entryX=0;entryY=0.5;entryDx=0;entryDy=0;" edge="1" parent="1" source="YRbqOb-YYkBFLriZjriP-1" target="YRbqOb-YYkBFLriZjriP-3">
          <mxGeometry relative="1" as="geometry" />
        </mxCell>
        <mxCell id="YRbqOb-YYkBFLriZjriP-6" style="edgeStyle=orthogonalEdgeStyle;rounded=0;orthogonalLoop=1;jettySize=auto;html=1;entryX=0;entryY=0.5;entryDx=0;entryDy=0;" edge="1" parent="1" source="YRbqOb-YYkBFLriZjriP-1" target="YRbqOb-YYkBFLriZjriP-5">
          <mxGeometry relative="1" as="geometry" />
        </mxCell>
        <mxCell id="YRbqOb-YYkBFLriZjriP-8" style="edgeStyle=orthogonalEdgeStyle;rounded=0;orthogonalLoop=1;jettySize=auto;html=1;entryX=0;entryY=0.5;entryDx=0;entryDy=0;" edge="1" parent="1" source="YRbqOb-YYkBFLriZjriP-1" target="YRbqOb-YYkBFLriZjriP-7">
          <mxGeometry relative="1" as="geometry" />
        </mxCell>
        <mxCell id="YRbqOb-YYkBFLriZjriP-24" style="edgeStyle=orthogonalEdgeStyle;rounded=0;orthogonalLoop=1;jettySize=auto;html=1;entryX=0;entryY=0.5;entryDx=0;entryDy=0;" edge="1" parent="1" source="YRbqOb-YYkBFLriZjriP-1" target="YRbqOb-YYkBFLriZjriP-20">
          <mxGeometry relative="1" as="geometry" />
        </mxCell>
        <mxCell id="YRbqOb-YYkBFLriZjriP-25" style="edgeStyle=orthogonalEdgeStyle;rounded=0;orthogonalLoop=1;jettySize=auto;html=1;entryX=0;entryY=0.5;entryDx=0;entryDy=0;" edge="1" parent="1" source="YRbqOb-YYkBFLriZjriP-1" target="YRbqOb-YYkBFLriZjriP-21">
          <mxGeometry relative="1" as="geometry" />
        </mxCell>
        <mxCell id="YRbqOb-YYkBFLriZjriP-26" style="edgeStyle=orthogonalEdgeStyle;rounded=0;orthogonalLoop=1;jettySize=auto;html=1;entryX=0;entryY=0.5;entryDx=0;entryDy=0;" edge="1" parent="1" source="YRbqOb-YYkBFLriZjriP-1" target="YRbqOb-YYkBFLriZjriP-22">
          <mxGeometry relative="1" as="geometry" />
        </mxCell>
        <mxCell id="YRbqOb-YYkBFLriZjriP-28" style="edgeStyle=orthogonalEdgeStyle;rounded=0;orthogonalLoop=1;jettySize=auto;html=1;entryX=0;entryY=0.5;entryDx=0;entryDy=0;" edge="1" parent="1" source="YRbqOb-YYkBFLriZjriP-1" target="YRbqOb-YYkBFLriZjriP-23">
          <mxGeometry relative="1" as="geometry" />
        </mxCell>
        <mxCell id="YRbqOb-YYkBFLriZjriP-1" value="&lt;div style=&quot;background-color: rgb(255 , 255 , 255) ; font-family: &amp;#34;droid sans mono&amp;#34; , monospace , monospace , &amp;#34;droid sans fallback&amp;#34; ; font-size: 18px ; line-height: 24px&quot;&gt;uvc_probe&lt;/div&gt;" style="whiteSpace=wrap;html=1;" vertex="1" parent="1">
          <mxGeometry x="40" y="420" width="120" height="60" as="geometry" />
        </mxCell>
        <mxCell id="YRbqOb-YYkBFLriZjriP-2" value="media/usb/uvc/uvc_driver.c" style="text;html=1;align=center;verticalAlign=middle;resizable=0;points=[];autosize=1;strokeColor=none;" vertex="1" parent="1">
          <mxGeometry x="15" y="500" width="170" height="20" as="geometry" />
        </mxCell>
        <mxCell id="YRbqOb-YYkBFLriZjriP-3" value="&lt;div style=&quot;background-color: rgb(255 , 255 , 255) ; font-family: &amp;#34;droid sans mono&amp;#34; , monospace , monospace , &amp;#34;droid sans fallback&amp;#34; ; font-size: 18px ; line-height: 24px&quot;&gt;uvc_parse_control&lt;/div&gt;" style="whiteSpace=wrap;html=1;" vertex="1" parent="1">
          <mxGeometry x="260" y="170" width="170" height="60" as="geometry" />
        </mxCell>
        <mxCell id="YRbqOb-YYkBFLriZjriP-5" value="&lt;div style=&quot;background-color: rgb(255 , 255 , 255) ; font-family: &amp;#34;droid sans mono&amp;#34; , monospace , monospace , &amp;#34;droid sans fallback&amp;#34; ; font-size: 18px ; line-height: 24px&quot;&gt;v4l2_device_register&lt;/div&gt;" style="whiteSpace=wrap;html=1;" vertex="1" parent="1">
          <mxGeometry x="260" y="330" width="180" height="60" as="geometry" />
        </mxCell>
        <mxCell id="YRbqOb-YYkBFLriZjriP-11" style="edgeStyle=orthogonalEdgeStyle;rounded=0;orthogonalLoop=1;jettySize=auto;html=1;entryX=0;entryY=0.5;entryDx=0;entryDy=0;" edge="1" parent="1" source="YRbqOb-YYkBFLriZjriP-7" target="YRbqOb-YYkBFLriZjriP-9">
          <mxGeometry relative="1" as="geometry" />
        </mxCell>
        <mxCell id="YRbqOb-YYkBFLriZjriP-7" value="&lt;div style=&quot;background-color: rgb(255 , 255 , 255) ; font-family: &amp;#34;droid sans mono&amp;#34; , monospace , monospace , &amp;#34;droid sans fallback&amp;#34; ; font-size: 18px ; line-height: 24px&quot;&gt;media_device_register&lt;/div&gt;" style="whiteSpace=wrap;html=1;" vertex="1" parent="1">
          <mxGeometry x="260" y="250" width="200" height="60" as="geometry" />
        </mxCell>
        <mxCell id="YRbqOb-YYkBFLriZjriP-14" style="edgeStyle=orthogonalEdgeStyle;rounded=0;orthogonalLoop=1;jettySize=auto;html=1;entryX=0;entryY=0.5;entryDx=0;entryDy=0;" edge="1" parent="1" source="YRbqOb-YYkBFLriZjriP-9" target="YRbqOb-YYkBFLriZjriP-13">
          <mxGeometry relative="1" as="geometry" />
        </mxCell>
        <mxCell id="YRbqOb-YYkBFLriZjriP-15" style="edgeStyle=orthogonalEdgeStyle;rounded=0;orthogonalLoop=1;jettySize=auto;html=1;entryX=0;entryY=0.5;entryDx=0;entryDy=0;" edge="1" parent="1" source="YRbqOb-YYkBFLriZjriP-9" target="YRbqOb-YYkBFLriZjriP-12">
          <mxGeometry relative="1" as="geometry" />
        </mxCell>
        <mxCell id="YRbqOb-YYkBFLriZjriP-19" style="edgeStyle=orthogonalEdgeStyle;rounded=0;orthogonalLoop=1;jettySize=auto;html=1;entryX=0;entryY=0.5;entryDx=0;entryDy=0;" edge="1" parent="1" source="YRbqOb-YYkBFLriZjriP-9" target="YRbqOb-YYkBFLriZjriP-18">
          <mxGeometry relative="1" as="geometry" />
        </mxCell>
        <mxCell id="YRbqOb-YYkBFLriZjriP-9" value="&lt;div style=&quot;background-color: rgb(255 , 255 , 255) ; font-family: &amp;#34;droid sans mono&amp;#34; , monospace , monospace , &amp;#34;droid sans fallback&amp;#34; ; font-size: 18px ; line-height: 24px&quot;&gt;media_devnode_register&lt;/div&gt;" style="whiteSpace=wrap;html=1;" vertex="1" parent="1">
          <mxGeometry x="530" y="250" width="220" height="60" as="geometry" />
        </mxCell>
        <mxCell id="YRbqOb-YYkBFLriZjriP-16" style="edgeStyle=orthogonalEdgeStyle;rounded=0;orthogonalLoop=1;jettySize=auto;html=1;entryX=0.5;entryY=0;entryDx=0;entryDy=0;dashed=1;" edge="1" parent="1" source="YRbqOb-YYkBFLriZjriP-12" target="YRbqOb-YYkBFLriZjriP-13">
          <mxGeometry relative="1" as="geometry" />
        </mxCell>
        <mxCell id="YRbqOb-YYkBFLriZjriP-12" value="&lt;div style=&quot;background-color: rgb(255 , 255 , 255) ; font-family: &amp;#34;droid sans mono&amp;#34; , monospace , monospace , &amp;#34;droid sans fallback&amp;#34; ; font-size: 18px ; line-height: 24px&quot;&gt;cdev_init&lt;/div&gt;" style="whiteSpace=wrap;html=1;" vertex="1" parent="1">
          <mxGeometry x="827" y="140" width="120" height="60" as="geometry" />
        </mxCell>
        <mxCell id="YRbqOb-YYkBFLriZjriP-13" value="&lt;div style=&quot;background-color: rgb(255 , 255 , 255) ; font-family: &amp;#34;droid sans mono&amp;#34; , monospace , monospace , &amp;#34;droid sans fallback&amp;#34; ; font-size: 18px ; line-height: 24px&quot;&gt;cdev_add&lt;/div&gt;" style="whiteSpace=wrap;html=1;" vertex="1" parent="1">
          <mxGeometry x="827" y="250" width="120" height="60" as="geometry" />
        </mxCell>
        <mxCell id="YRbqOb-YYkBFLriZjriP-17" value="&lt;div style=&quot;background-color: rgb(255 , 255 , 255) ; font-family: &amp;#34;droid sans mono&amp;#34; , monospace , monospace , &amp;#34;droid sans fallback&amp;#34; ; line-height: 24px&quot;&gt;&lt;font style=&quot;font-size: 14px&quot;&gt;media_devnode_fops&lt;/font&gt;&lt;/div&gt;" style="text;html=1;align=center;verticalAlign=middle;resizable=0;points=[];autosize=1;strokeColor=none;" vertex="1" parent="1">
          <mxGeometry x="880" y="200" width="160" height="30" as="geometry" />
        </mxCell>
        <mxCell id="YRbqOb-YYkBFLriZjriP-18" value="&lt;div style=&quot;background-color: rgb(255 , 255 , 255) ; font-family: &amp;#34;droid sans mono&amp;#34; , monospace , monospace , &amp;#34;droid sans fallback&amp;#34; ; font-size: 18px ; line-height: 24px&quot;&gt;device_register&lt;/div&gt;" style="whiteSpace=wrap;html=1;" vertex="1" parent="1">
          <mxGeometry x="827" y="340" width="130" height="60" as="geometry" />
        </mxCell>
        <mxCell id="YRbqOb-YYkBFLriZjriP-32" style="edgeStyle=orthogonalEdgeStyle;rounded=0;orthogonalLoop=1;jettySize=auto;html=1;entryX=0;entryY=0.5;entryDx=0;entryDy=0;" edge="1" parent="1" source="YRbqOb-YYkBFLriZjriP-20" target="YRbqOb-YYkBFLriZjriP-29">
          <mxGeometry relative="1" as="geometry" />
        </mxCell>
        <mxCell id="YRbqOb-YYkBFLriZjriP-20" value="&lt;div style=&quot;background-color: rgb(255 , 255 , 255) ; font-family: &amp;#34;droid sans mono&amp;#34; , monospace , monospace , &amp;#34;droid sans fallback&amp;#34; ; font-size: 18px ; line-height: 24px&quot;&gt;uvc_ctrl_init_device&lt;/div&gt;" style="whiteSpace=wrap;html=1;" vertex="1" parent="1">
          <mxGeometry x="260" y="420" width="180" height="60" as="geometry" />
        </mxCell>
        <mxCell id="YRbqOb-YYkBFLriZjriP-21" value="&lt;div style=&quot;background-color: rgb(255 , 255 , 255) ; font-family: &amp;#34;droid sans mono&amp;#34; , monospace , monospace , &amp;#34;droid sans fallback&amp;#34; ; font-size: 18px ; line-height: 24px&quot;&gt;uvc_scan_device&lt;/div&gt;" style="whiteSpace=wrap;html=1;" vertex="1" parent="1">
          <mxGeometry x="260" y="510" width="160" height="60" as="geometry" />
        </mxCell>
        <mxCell id="YRbqOb-YYkBFLriZjriP-31" style="edgeStyle=orthogonalEdgeStyle;rounded=0;orthogonalLoop=1;jettySize=auto;html=1;entryX=0;entryY=0.5;entryDx=0;entryDy=0;" edge="1" parent="1" source="YRbqOb-YYkBFLriZjriP-22" target="YRbqOb-YYkBFLriZjriP-30">
          <mxGeometry relative="1" as="geometry" />
        </mxCell>
        <mxCell id="YRbqOb-YYkBFLriZjriP-22" value="&lt;div style=&quot;background-color: rgb(255 , 255 , 255) ; font-family: &amp;#34;droid sans mono&amp;#34; , monospace , monospace , &amp;#34;droid sans fallback&amp;#34; ; font-size: 18px ; line-height: 24px&quot;&gt;uvc_register_chains&lt;/div&gt;" style="whiteSpace=wrap;html=1;" vertex="1" parent="1">
          <mxGeometry x="260" y="600" width="180" height="60" as="geometry" />
        </mxCell>
        <mxCell id="YRbqOb-YYkBFLriZjriP-23" value="&lt;div style=&quot;background-color: rgb(255 , 255 , 255) ; font-family: &amp;#34;droid sans mono&amp;#34; , monospace , monospace , &amp;#34;droid sans fallback&amp;#34; ; font-size: 18px ; line-height: 24px&quot;&gt;uvc_status_init&lt;/div&gt;" style="whiteSpace=wrap;html=1;" vertex="1" parent="1">
          <mxGeometry x="260" y="690" width="150" height="60" as="geometry" />
        </mxCell>
        <mxCell id="YRbqOb-YYkBFLriZjriP-29" value="&lt;div style=&quot;background-color: rgb(255 , 255 , 255) ; font-family: &amp;#34;droid sans mono&amp;#34; , monospace , monospace , &amp;#34;droid sans fallback&amp;#34; ; font-size: 18px ; line-height: 24px&quot;&gt;uvc_ctrl_init_ctrl&lt;/div&gt;" style="whiteSpace=wrap;html=1;" vertex="1" parent="1">
          <mxGeometry x="530" y="420" width="160" height="60" as="geometry" />
        </mxCell>
        <mxCell id="YRbqOb-YYkBFLriZjriP-36" style="edgeStyle=orthogonalEdgeStyle;rounded=0;orthogonalLoop=1;jettySize=auto;html=1;entryX=0;entryY=0.5;entryDx=0;entryDy=0;" edge="1" parent="1" source="YRbqOb-YYkBFLriZjriP-30" target="YRbqOb-YYkBFLriZjriP-34">
          <mxGeometry relative="1" as="geometry" />
        </mxCell>
        <mxCell id="YRbqOb-YYkBFLriZjriP-37" style="edgeStyle=orthogonalEdgeStyle;rounded=0;orthogonalLoop=1;jettySize=auto;html=1;" edge="1" parent="1" source="YRbqOb-YYkBFLriZjriP-30" target="YRbqOb-YYkBFLriZjriP-35">
          <mxGeometry relative="1" as="geometry" />
        </mxCell>
        <mxCell id="YRbqOb-YYkBFLriZjriP-30" value="&lt;div style=&quot;background-color: rgb(255 , 255 , 255) ; font-family: &amp;#34;droid sans mono&amp;#34; , monospace , monospace , &amp;#34;droid sans fallback&amp;#34; ; font-size: 18px ; line-height: 24px&quot;&gt;uvc_register_terms&lt;/div&gt;" style="whiteSpace=wrap;html=1;" vertex="1" parent="1">
          <mxGeometry x="580" y="600" width="180" height="60" as="geometry" />
        </mxCell>
        <mxCell id="YRbqOb-YYkBFLriZjriP-33" value="&lt;div style=&quot;background-color: rgb(255 , 255 , 255) ; font-family: &amp;#34;droid sans mono&amp;#34; , monospace , monospace , &amp;#34;droid sans fallback&amp;#34; ; line-height: 24px&quot;&gt;uvc_device-&amp;gt;chains&lt;/div&gt;" style="text;html=1;align=center;verticalAlign=middle;resizable=0;points=[];autosize=1;strokeColor=none;" vertex="1" parent="1">
          <mxGeometry x="440" y="600" width="130" height="30" as="geometry" />
        </mxCell>
        <mxCell id="YRbqOb-YYkBFLriZjriP-34" value="&lt;div style=&quot;background-color: rgb(255 , 255 , 255) ; font-family: &amp;#34;droid sans mono&amp;#34; , monospace , monospace , &amp;#34;droid sans fallback&amp;#34; ; font-size: 18px ; line-height: 24px&quot;&gt;uvc_stream_by_id&lt;/div&gt;" style="whiteSpace=wrap;html=1;" vertex="1" parent="1">
          <mxGeometry x="877" y="500" width="163" height="60" as="geometry" />
        </mxCell>
        <mxCell id="YRbqOb-YYkBFLriZjriP-41" style="edgeStyle=orthogonalEdgeStyle;rounded=0;orthogonalLoop=1;jettySize=auto;html=1;" edge="1" parent="1" source="YRbqOb-YYkBFLriZjriP-35" target="YRbqOb-YYkBFLriZjriP-40">
          <mxGeometry relative="1" as="geometry" />
        </mxCell>
        <mxCell id="YRbqOb-YYkBFLriZjriP-42" style="edgeStyle=orthogonalEdgeStyle;rounded=0;orthogonalLoop=1;jettySize=auto;html=1;entryX=0;entryY=0.5;entryDx=0;entryDy=0;" edge="1" parent="1" source="YRbqOb-YYkBFLriZjriP-35" target="YRbqOb-YYkBFLriZjriP-39">
          <mxGeometry relative="1" as="geometry" />
        </mxCell>
        <mxCell id="YRbqOb-YYkBFLriZjriP-35" value="&lt;div style=&quot;background-color: rgb(255 , 255 , 255) ; font-family: &amp;#34;droid sans mono&amp;#34; , monospace , monospace , &amp;#34;droid sans fallback&amp;#34; ; font-size: 18px ; line-height: 24px&quot;&gt;uvc_register_video&lt;/div&gt;" style="whiteSpace=wrap;html=1;" vertex="1" parent="1">
          <mxGeometry x="877" y="600" width="163" height="60" as="geometry" />
        </mxCell>
        <mxCell id="YRbqOb-YYkBFLriZjriP-38" value="&lt;div style=&quot;background-color: rgb(255 , 255 , 255) ; font-family: &amp;#34;droid sans mono&amp;#34; , monospace , monospace , &amp;#34;droid sans fallback&amp;#34; ; line-height: 24px&quot;&gt;chain-&amp;gt;entities&lt;/div&gt;" style="text;html=1;align=center;verticalAlign=middle;resizable=0;points=[];autosize=1;strokeColor=none;" vertex="1" parent="1">
          <mxGeometry x="780" y="630" width="100" height="30" as="geometry" />
        </mxCell>
        <mxCell id="YRbqOb-YYkBFLriZjriP-39" value="&lt;div style=&quot;background-color: rgb(255 , 255 , 255) ; font-family: &amp;#34;droid sans mono&amp;#34; , monospace , monospace , &amp;#34;droid sans fallback&amp;#34; ; font-size: 18px ; line-height: 24px&quot;&gt;uvc_queue_init&lt;/div&gt;" style="whiteSpace=wrap;html=1;" vertex="1" parent="1">
          <mxGeometry x="1120" y="500" width="150" height="60" as="geometry" />
        </mxCell>
        <mxCell id="YRbqOb-YYkBFLriZjriP-40" value="&lt;div style=&quot;background-color: rgb(255 , 255 , 255) ; font-family: &amp;#34;droid sans mono&amp;#34; , monospace , monospace , &amp;#34;droid sans fallback&amp;#34; ; font-size: 18px ; line-height: 24px&quot;&gt;video_register_device&lt;/div&gt;" style="whiteSpace=wrap;html=1;" vertex="1" parent="1">
          <mxGeometry x="1120" y="600" width="190" height="60" as="geometry" />
        </mxCell>
      </root>
    </mxGraphModel>
  </diagram>
</mxfile>
